# xmcd
#
# Track frame offsets: 
#        750
#        6521
#        24319
#        53349
#        71764
#        90576
#        108024
#        140596
#        157351
#        174259
#        206249
#        239034
#        267794
#        291104
#        298604
#
# Disc length: 3989 seconds
#
# Revision: 0
# Processed by: cddbd v1.5.2PL0 Copyright (c) Steve Scherf et al.
# Submitted via: ExactAudioCopy v1.1
#
DISCID=da0f8b0f
DTITLE=Kai Tracid - Trance and Acid (Limited Edition)
DYEAR=2002
DGENRE=Techno
TTITLE0=Tracid theme
TTITLE1=Tiefenrausch (The Deep Blue) (The Deep Blue radio mix)
TTITLE2=Bad shape
TTITLE3=Destiny's path (video mix)
TTITLE4=Message without words
TTITLE5=Too many times (video cut)
TTITLE6=Suicide
TTITLE7=Life is too short (video cut)
TTITLE8=Peyote song
TTITLE9=Trance and Acid
TTITLE10=Voyager
TTITLE11=Destiny's path (Warmduscher remix)
TTITLE12=The worst Pain of all
TTITLE13=Unbekannter Titel
TTITLE14=Unbekannter Titel
EXTD=
EXTT0=
EXTT1=
EXTT2=
EXTT3=
EXTT4=
EXTT5=
EXTT6=
EXTT7=
EXTT8=
EXTT9=
EXTT10=
EXTT11=
EXTT12=
EXTT13=
EXTT14=
PLAYORDER=
